<svg id="logo" xmlns="http://www.w3.org/2000/svg" width="678" height="189.15" viewBox="0 0 678 189.15">
  <text id="This_my_web_site_You_wanna_know_me_." data-name="This my web site, You wanna know me ." transform="translate(32 172)" fill="#fff" stroke="#fff" stroke-width="0.15" font-size="55" font-family="Chiller-Regular, Chiller"><tspan x="0" y="0">This my web site, You wanna know me .</tspan></text>
  <text id="I_m_the_Death" data-name="I&apos;m the Death" transform="translate(3 110)" fill="#fff" font-size="130" font-family="Chiller-Regular, Chiller"><tspan x="0" y="0">I&apos;m the Death</tspan></text>
  <path id="Trazado_10" data-name="Trazado 10" d="M12.556-1278.789a17.252,17.252,0,0,0-8.5,2.293A13.728,13.728,0,0,0,1.34-1274.3c-.212.223-.256.284-.183.256.1-.039,1.14-.358,1.6-.5A37.123,37.123,0,0,1,11.1-1276.1c.577-.036,2.189-.036,2.721,0a20.24,20.24,0,0,1,3.746.58c.288.077,1.09.311,1.151.338.017.008.02.044,0,.126-.02.11-.017.115.1.3l.12.19-.12.737c-.068.4-.166,1-.218,1.314l-.708,4.261-1.442,8.688c-.456,2.752-1.131,6.816-1.5,9.031s-.764,4.6-.882,5.312-.21,1.286-.207,1.286c.042,0,.544.132.756.2a1.037,1.037,0,0,0,.293.069c.009-.011.288-1.661.622-3.671s.922-5.553,1.308-7.882.769-4.643.852-5.141.428-2.571.764-4.6c.841-5.075.9-5.449,1.027-6.186.347-2.086.5-3.027.5-3.06a1.222,1.222,0,0,1,.1-.223l.1-.19.31-1.93c.168-1.064.3-1.938.3-1.947s-.3-.069-.655-.14-.671-.135-.7-.143c-.052-.014-.061-.006-.061.049,0,.124,0,.124-.557.088-1.924-.126-3.235-.176-4.63-.17C13.534-1278.814,12.8-1278.8,12.556-1278.789Z" transform="translate(348.443 1362.688) rotate(14)" fill="#fff"/>
</svg>
