<svg id="send-btn" xmlns="http://www.w3.org/2000/svg" width="25.456" height="25.456" viewBox="0 0 25.456 25.456">
  <g id="Trazado_9" data-name="Trazado 9" transform="translate(12.904 0.678) rotate(45)" fill="#042a51">
    <path d="M 1.935854315757751 17.14521980285645 C 1.198854327201843 17.14521980285645 0.5631142854690552 16.79402923583984 0.1916342973709106 16.18169021606445 C -0.1855257004499435 15.5599889755249 -0.2004256993532181 14.78512954711914 0.1517843008041382 14.10892963409424 L 6.776594161987305 1.389929294586182 C 7.176494121551514 0.6221693158149719 7.954864501953125 0.1452193111181259 8.807953834533691 0.1452193111181259 C 9.613654136657715 0.1452193111181259 10.29920387268066 0.5657293200492859 10.64179420471191 1.270079255104065 L 16.68884468078613 13.70260906219482 C 17.00574493408203 14.35414886474609 16.9607048034668 15.09962940216064 16.56526374816895 15.74787902832031 C 16.15883636474609 16.41414642333984 15.46354389190674 16.82658195495605 14.69935894012451 16.8569507598877 L 8.415143966674805 15.96170902252197 L 8.33359432220459 15.95008945465088 L 8.25262451171875 15.96524906158447 L 1.949703931808472 17.14517784118652 C 1.945080876350403 17.14520645141602 1.940464496612549 17.14521980285645 1.935854315757751 17.14521980285645 Z" stroke="none"/>
    <path d="M 8.807954788208008 0.6452198028564453 C 8.285984039306641 0.6452198028564453 7.594734191894531 0.9015293121337891 7.220044136047363 1.620899200439453 L 0.5952339172363281 14.33989906311035 C 0.3204135894775391 14.86753940582275 0.3291149139404297 15.44431972503662 0.6191139221191406 15.92234897613525 C 0.8925924301147461 16.37313079833984 1.359844207763672 16.63527679443359 1.904579162597656 16.64494132995605 L 8.322554588317871 15.44346904754639 L 14.72204780578613 16.35512733459473 C 15.3017635345459 16.31804847717285 15.82720565795898 15.9976634979248 16.13840484619141 15.48749923706055 C 16.44340515136719 14.98751926422119 16.48014450073242 14.41665935516357 16.23920440673828 13.92130947113037 L 10.19215393066406 1.48876953125 C 9.821834564208984 0.7274188995361328 9.100774765014648 0.6452198028564453 8.807954788208008 0.6452198028564453 M 8.807958602905273 -0.3547763824462891 C 9.731136322021484 -0.3547763824462891 10.63386058807373 0.1106491088867188 11.0914249420166 1.051379203796387 L 17.13847351074219 13.48390960693359 C 17.98246383666992 15.21911907196045 16.64894485473633 17.31332969665527 14.6715841293335 17.35802841186523 L 8.344624519348145 16.45670890808105 L 1.999713897705078 17.64449882507324 C 0.02246856689453125 17.68921089172363 -1.21629524230957 15.65313911437988 -0.2916660308837891 13.87794876098633 L 6.333144187927246 1.15894889831543 C 6.856817245483398 0.1535453796386719 7.843536376953125 -0.3547763824462891 8.807958602905273 -0.3547763824462891 Z" stroke="none" fill="#fff"/>
  </g>
</svg>
